HIERARCHY
ROOT Hips
{
	OFFSET 0.000000 35.082581 0.000000
	CHANNELS 6 Xposition Yposition Zposition Xrotation Yrotation Zrotation 
	JOINT Spine
	{
		OFFSET 0.000000 6.876099 0.125700
		CHANNELS 3 Xrotation Yrotation Zrotation
		JOINT Spine1
		{
			OFFSET 0.000000 5.730043 0.104720
			CHANNELS 3 Xrotation Yrotation Zrotation
			JOINT Spine1_split
			{
				OFFSET 0.000000 5.730043 0.104720
				CHANNELS 3 Xrotation Yrotation Zrotation
				JOINT Spine2
				{
					OFFSET 0.000000 5.730043 0.104720
					CHANNELS 3 Xrotation Yrotation Zrotation
					JOINT Neck
					{
						OFFSET 0.000000 10.314075 0.188496
						CHANNELS 3 Xrotation Yrotation Zrotation
						JOINT Head
						{
							OFFSET 0.000000 7.643700 -2.377400
							CHANNELS 3 Xrotation Yrotation Zrotation
							JOINT HeadTop_End
							{
								OFFSET 0.000000 43.788605 -13.619600
								CHANNELS 3 Xrotation Yrotation Zrotation
								End Site
								{
									OFFSET 0.000000 0.000000 0.000000
								}
							}
						}
					}
					JOINT LeftShoulder
					{
						OFFSET 2.196100 4.412489 0.087492
						CHANNELS 3 Xrotation Yrotation Zrotation
						JOINT LeftShoulder_split
						{
							OFFSET 2.196100 4.412489 0.087492
							CHANNELS 3 Xrotation Yrotation Zrotation
							JOINT LeftArm
							{
								OFFSET 8.771219 -2.981674 -0.026999
								CHANNELS 3 Xrotation Yrotation Zrotation
								JOINT LeftForeArm
								{
									OFFSET 8.512804 0.000000 -0.000000
									CHANNELS 3 Xrotation Yrotation Zrotation
									JOINT LeftHand
									{
										OFFSET 18.484802 0.000000 -0.000000
										CHANNELS 3 Xrotation Yrotation Zrotation
										JOINT LeftHandThumb1
										{
											OFFSET 2.499420 -1.158070 2.653252
											CHANNELS 3 Xrotation Yrotation Zrotation
											JOINT LeftHandThumb2
											{
												OFFSET 2.370079 -1.368366 1.368366
												CHANNELS 3 Xrotation Yrotation Zrotation
												JOINT LeftHandThumb3
												{
													OFFSET 2.676727 -1.545410 1.545409
													CHANNELS 3 Xrotation Yrotation Zrotation
													JOINT LeftHandThumb4
													{
														OFFSET 1.692226 -0.977005 0.977007
														CHANNELS 3 Xrotation Yrotation Zrotation
														End Site
														{
															OFFSET 0.000000 0.000000 0.000000
														}
													}
												}
											}
										}
										JOINT LeftHandIndex1
										{
											OFFSET 7.924831 -0.457527 2.345128
											CHANNELS 3 Xrotation Yrotation Zrotation
											JOINT LeftHandIndex2
											{
												OFFSET 3.643303 0.000000 0.000000
												CHANNELS 3 Xrotation Yrotation Zrotation
												JOINT LeftHandIndex3
												{
													OFFSET 3.810799 0.000000 0.000000
													CHANNELS 3 Xrotation Yrotation Zrotation
													JOINT LeftHandIndex4
													{
														OFFSET 2.403702 0.000000 0.000000
														CHANNELS 3 Xrotation Yrotation Zrotation
														End Site
														{
															OFFSET 0.000000 0.000000 0.000000
														}
													}
												}
											}
										}
										JOINT LeftHandMiddle1
										{
											OFFSET 8.563995 0.000000 -0.000000
											CHANNELS 3 Xrotation Yrotation Zrotation
											JOINT LeftHandMiddle2
											{
												OFFSET 3.861618 0.000000 0.000000
												CHANNELS 3 Xrotation Yrotation Zrotation
												JOINT LeftHandMiddle3
												{
													OFFSET 3.701603 0.000000 0.000000
													CHANNELS 3 Xrotation Yrotation Zrotation
													JOINT LeftHandMiddle4
													{
														OFFSET 2.322544 0.000000 0.000000
														CHANNELS 3 Xrotation Yrotation Zrotation
														End Site
														{
															OFFSET 0.000000 0.000000 0.000000
														}
													}
												}
											}
										}
										JOINT LeftHandRing1
										{
											OFFSET 8.426460 -0.424637 -3.286992
											CHANNELS 3 Xrotation Yrotation Zrotation
											JOINT LeftHandRing2
											{
												OFFSET 3.126408 0.000000 0.000000
												CHANNELS 3 Xrotation Yrotation Zrotation
												JOINT LeftHandRing3
												{
													OFFSET 3.085026 0.000000 0.000000
													CHANNELS 3 Xrotation Yrotation Zrotation
													JOINT LeftHandRing4
													{
														OFFSET 1.644005 0.000000 0.000000
														CHANNELS 3 Xrotation Yrotation Zrotation
														End Site
														{
															OFFSET 0.000000 0.000000 0.000000
														}
													}
												}
											}
										}
									}
								}
							}
						}
					}
					JOINT RightShoulder
					{
						OFFSET -2.196100 4.412496 0.070690
						CHANNELS 3 Xrotation Yrotation Zrotation
						JOINT RightShoulder_split
						{
							OFFSET -2.196100 4.412496 0.070690
							CHANNELS 3 Xrotation Yrotation Zrotation
							JOINT RightArm
							{
								OFFSET -8.771282 -2.981682 -0.094208
								CHANNELS 3 Xrotation Yrotation Zrotation
								JOINT RightForeArm
								{
									OFFSET -8.494598 0.000000 0.000000
									CHANNELS 3 Xrotation Yrotation Zrotation
									JOINT RightHand
									{
										OFFSET -18.483803 0.000000 0.000001
										CHANNELS 3 Xrotation Yrotation Zrotation
										JOINT RightHandThumb1
										{
											OFFSET -2.527351 -1.008072 2.575253
											CHANNELS 3 Xrotation Yrotation Zrotation
											JOINT RightHandThumb2
											{
												OFFSET -2.321518 -1.340328 1.340329
												CHANNELS 3 Xrotation Yrotation Zrotation
												JOINT RightHandThumb3
												{
													OFFSET -2.657753 -1.534454 1.534455
													CHANNELS 3 Xrotation Yrotation Zrotation
													JOINT RightHandThumb4
													{
														OFFSET -1.807510 -1.043568 1.043567
														CHANNELS 3 Xrotation Yrotation Zrotation
														End Site
														{
															OFFSET 0.000000 0.000000 0.000000
														}
													}
												}
											}
										}
										JOINT RightHandIndex1
										{
											OFFSET -8.811420 0.015533 2.887987
											CHANNELS 3 Xrotation Yrotation Zrotation
											JOINT RightHandIndex2
											{
												OFFSET -3.537502 0.000000 0.000000
												CHANNELS 3 Xrotation Yrotation Zrotation
												JOINT RightHandIndex3
												{
													OFFSET -3.356201 0.000000 0.000000
													CHANNELS 3 Xrotation Yrotation Zrotation
													JOINT RightHandIndex4
													{
														OFFSET -1.933098 0.000000 0.000000
														CHANNELS 3 Xrotation Yrotation Zrotation
														End Site
														{
															OFFSET 0.000000 0.000000 0.000000
														}
													}
												}
											}
										}
										JOINT RightHandMiddle1
										{
											OFFSET -8.178135 0.000000 0.000000
											CHANNELS 3 Xrotation Yrotation Zrotation
											JOINT RightHandMiddle2
											{
												OFFSET -3.901302 0.000000 0.000000
												CHANNELS 3 Xrotation Yrotation Zrotation
												JOINT RightHandMiddle3
												{
													OFFSET -3.909599 0.000000 0.000000
													CHANNELS 3 Xrotation Yrotation Zrotation
													JOINT RightHandMiddle4
													{
														OFFSET -2.376003 0.000000 0.000000
														CHANNELS 3 Xrotation Yrotation Zrotation
														End Site
														{
															OFFSET 0.000000 0.000000 0.000000
														}
													}
												}
											}
										}
										JOINT RightHandRing1
										{
											OFFSET -7.559013 0.014137 -2.865403
											CHANNELS 3 Xrotation Yrotation Zrotation
											JOINT RightHandRing2
											{
												OFFSET -3.449306 0.000000 0.000000
												CHANNELS 3 Xrotation Yrotation Zrotation
												JOINT RightHandRing3
												{
													OFFSET -3.362106 0.000000 0.000000
													CHANNELS 3 Xrotation Yrotation Zrotation
													JOINT RightHandRing4
													{
														OFFSET -2.076401 0.000000 0.000000
														CHANNELS 3 Xrotation Yrotation Zrotation
														End Site
														{
															OFFSET 0.000000 0.000000 0.000000
														}
													}
												}
											}
										}
									}
								}
							}
						}
					}
				}
			}
		}
	}
	JOINT LeftUpLeg
	{
		OFFSET 10.205400 -3.823500 0.155100
		CHANNELS 3 Xrotation Yrotation Zrotation
		JOINT LeftLeg
		{
			OFFSET 0.708757 -12.982077 0.567790
			CHANNELS 3 Xrotation Yrotation Zrotation
			JOINT LeftFoot
			{
				OFFSET -0.708756 -10.717838 -2.184338
				CHANNELS 3 Xrotation Yrotation Zrotation
				JOINT LeftToeBase
				{
					OFFSET 0.108149 -7.191104 7.560241
					CHANNELS 3 Xrotation Yrotation Zrotation
					JOINT LeftToe_End
					{
						OFFSET 0.070230 0.081724 4.490308
						CHANNELS 3 Xrotation Yrotation Zrotation
						End Site
						{
							OFFSET 0.000000 0.000000 0.000000
						}
					}
				}
			}
		}
	}
	JOINT RightUpLeg
	{
		OFFSET -10.205400 -3.823500 0.005500
		CHANNELS 3 Xrotation Yrotation Zrotation
		JOINT RightLeg
		{
			OFFSET -0.708756 -12.982134 0.610632
			CHANNELS 3 Xrotation Yrotation Zrotation
			JOINT RightFoot
			{
				OFFSET 0.708754 -10.717769 -1.945823
				CHANNELS 3 Xrotation Yrotation Zrotation
				JOINT RightToeBase
				{
					OFFSET -0.108140 -7.191069 7.372968
					CHANNELS 3 Xrotation Yrotation Zrotation
					JOINT RightToe_End
					{
						OFFSET -0.070227 0.081735 4.479403
						CHANNELS 3 Xrotation Yrotation Zrotation
						End Site
						{
							OFFSET 0.000000 0.000000 0.000000
						}
					}
				}
			}
		}
	}
}
MOTION
Frames: 4
Frame Time: 0.016667
0.678990 81.715691 -0.369026 -4.565420 5.013321 3.848015 4.648300 -0.784478 1.697080 9.932385 -0.680238 3.008163 0.000000 0.000000 0.000000 9.936596 -0.617925 3.002057 -0.494620 1.768445 -5.437057 5.110709 1.939356 -6.547526 0.000000 -0.000001 0.000000 -0.221744 14.341903 -11.465866 0.000000 0.000000 0.000000 4.441022 -10.208756 -60.164473 0.000003 -50.304456 -0.000008 20.413443 -0.668133 -4.134512 -3.500375 23.141787 9.972891 -2.408849 12.775501 10.381857 -3.572562 4.191480 6.966302 -0.000004 0.000001 -0.000002 0.080925 1.054715 -8.775011 0.139275 1.380626 -11.520077 0.034900 0.693824 -5.759199 -0.000001 -0.000001 0.000000 0.080630 1.052803 -8.759025 0.139656 1.382528 -11.536062 0.034900 0.693822 -5.759201 0.000000 0.000000 -0.000000 0.080916 1.054719 -8.775016 0.139280 1.380625 -11.520077 0.034893 0.693823 -5.759194 0.000002 -0.000002 0.000001 1.119638 3.440114 7.346962 0.000000 0.000000 0.000000 -5.089670 8.253000 56.488437 0.000004 38.764541 -0.000010 3.115027 -7.514420 -6.985643 -7.604798 -2.521680 -16.076742 4.602788 -15.232196 -8.617180 -1.023793 -3.032474 -6.344377 -0.000000 -0.000002 -0.000003 0.672554 -2.988254 25.363090 0.151847 -1.448112 11.972168 0.038079 -0.728033 5.985120 0.000001 0.000000 -0.000001 0.672553 -2.988250 25.363093 0.151862 -1.448123 11.972171 0.038056 -0.728029 5.985117 -0.000001 -0.000000 -0.000001 0.672563 -2.988245 25.363096 0.151856 -1.448115 11.972166 0.038065 -0.728031 5.985114 0.000001 0.000001 -0.000001 -9.764222 15.363199 10.963018 15.828484 -8.516373 -1.100776 -3.951232 0.858135 -7.097661 -0.000001 0.000002 0.000000 0.000000 -0.000000 -0.000000 -1.183531 -9.833937 -7.679057 31.288953 7.423751 1.242633 -34.822814 -2.489252 4.593582 -0.000008 0.000000 -0.000000 0.000000 -0.000000 -0.000000 
0.673769 81.705383 -0.378898 -4.314427 5.015660 3.836717 4.619613 -0.779618 1.699030 9.886745 -0.664536 3.002678 0.000000 0.000000 0.000000 9.891311 -0.602349 2.995065 -0.542377 1.841336 -5.558723 5.225232 2.094418 -6.610318 0.000004 -0.000000 0.000000 -0.219939 14.506509 -11.612887 0.000000 0.000000 0.000000 4.361428 -10.445355 -59.944670 0.000006 -50.526324 0.000011 20.043445 -0.258940 -4.095660 -3.500362 23.141779 9.972892 -2.408852 12.775499 10.381860 -3.572563 4.191475 6.966298 -0.000002 0.000002 -0.000004 0.080923 1.054712 -8.775012 0.139260 1.380636 -11.520086 0.034901 0.693822 -5.759192 0.000001 -0.000001 0.000000 0.080632 1.052812 -8.759041 0.139644 1.382524 -11.536055 0.034906 0.693827 -5.759186 -0.000000 -0.000000 0.000000 0.080925 1.054717 -8.775013 0.139259 1.380629 -11.520086 0.034910 0.693818 -5.759190 -0.000001 -0.000000 -0.000000 1.111073 3.468515 7.163175 0.000000 0.000000 0.000000 -4.424845 9.153718 56.002814 0.000010 39.178634 -0.000026 2.112989 -7.565635 -7.684051 -7.604780 -2.521701 -16.076752 4.602793 -15.232191 -8.617182 -1.023800 -3.032476 -6.344365 -0.000002 -0.000002 -0.000002 0.672576 -2.988258 25.363074 0.151860 -1.448119 11.972167 0.038052 -0.728014 5.985135 0.000001 0.000000 -0.000000 0.672557 -2.988258 25.363079 0.151870 -1.448119 11.972172 0.038052 -0.728029 5.985137 -0.000000 -0.000002 -0.000001 0.672569 -2.988254 25.363084 0.151873 -1.448115 11.972171 0.038037 -0.728020 5.985128 -0.000002 -0.000001 -0.000001 -10.217627 15.213408 10.989612 16.189614 -8.504774 -1.148542 -4.178267 0.863486 -7.001609 -0.000003 0.000001 -0.000005 0.000000 0.000001 0.000000 -1.466942 -9.815178 -7.675092 31.343707 7.418430 1.243889 -34.982914 -2.487928 4.529300 0.000008 -0.000002 0.000001 0.000001 -0.000000 0.000001 
0.668774 81.692764 -0.389887 -4.051628 5.037839 3.828110 4.587327 -0.777857 1.695492 9.837533 -0.656224 2.999172 0.000000 0.000000 0.000000 9.842315 -0.594122 2.990731 -0.552504 1.913018 -5.689799 5.267445 2.253988 -6.652773 -0.000003 -0.000001 -0.000000 -0.217716 14.595756 -11.694873 0.000000 0.000000 0.000000 4.265769 -10.605533 -59.786306 -0.000013 -50.764121 -0.000006 19.817304 0.066143 -4.103497 -3.500375 23.141798 9.972899 -2.408856 12.775485 10.381871 -3.572569 4.191485 6.966305 -0.000003 0.000000 0.000001 0.080925 1.054725 -8.774994 0.139273 1.380620 -11.520077 0.034898 0.693820 -5.759190 -0.000001 -0.000000 -0.000000 0.080631 1.052812 -8.759018 0.139657 1.382526 -11.536050 0.034908 0.693808 -5.759193 0.000001 -0.000002 0.000001 0.080921 1.054724 -8.774988 0.139278 1.380623 -11.520074 0.034897 0.693815 -5.759199 -0.000000 -0.000000 0.000000 1.104815 3.549006 6.940630 0.000000 0.000000 0.000000 -3.653392 10.119992 55.385256 0.000010 39.770740 -0.000021 0.971895 -7.983119 -7.726968 -7.604801 -2.521689 -16.076747 4.602809 -15.232188 -8.617190 -1.023805 -3.032480 -6.344385 0.000003 -0.000002 -0.000000 0.672576 -2.988251 25.363071 0.151828 -1.448118 11.972179 0.038068 -0.728024 5.985116 -0.000000 -0.000000 -0.000000 0.672577 -2.988254 25.363081 0.151845 -1.448123 11.972185 0.038071 -0.728030 5.985128 0.000001 0.000000 0.000001 0.672579 -2.988253 25.363079 0.151834 -1.448114 11.972172 0.038081 -0.728032 5.985119 -0.000001 -0.000001 -0.000000 -10.680965 15.065744 11.019251 16.664629 -8.328065 -1.201019 -4.531663 0.885352 -6.929644 -0.000003 0.000001 0.000001 0.000000 0.000001 0.000000 -1.765685 -9.796710 -7.671347 31.425472 7.400057 1.243290 -35.172899 -2.487544 4.460402 -0.000001 0.000000 0.000003 -0.000000 0.000000 0.000000 
0.661748 81.678345 -0.404042 -3.776797 5.084949 3.824285 4.554395 -0.778635 1.686345 9.789340 -0.654193 2.995626 0.000000 0.000000 0.000000 9.794229 -0.592128 2.986810 -0.544864 1.982233 -5.822370 5.258741 2.411931 -6.675186 -0.000001 -0.000000 0.000000 -0.216472 14.635951 -11.728238 0.000000 0.000000 0.000000 4.166838 -10.728376 -59.653677 -0.000011 -51.016612 -0.000014 19.677585 0.328021 -4.160761 -3.500384 23.141787 9.972916 -2.408847 12.775493 10.381869 -3.572568 4.191483 6.966311 -0.000002 0.000001 -0.000002 0.080922 1.054720 -8.775010 0.139257 1.380626 -11.520060 0.034911 0.693828 -5.759201 -0.000002 0.000000 -0.000000 0.080627 1.052818 -8.759014 0.139657 1.382514 -11.536072 0.034893 0.693823 -5.759198 -0.000001 -0.000000 0.000000 0.080925 1.054715 -8.775008 0.139269 1.380626 -11.520074 0.034907 0.693829 -5.759191 0.000003 -0.000001 0.000001 1.100258 3.659963 6.697176 0.000000 0.000000 0.000000 -2.825903 11.105709 54.696131 -0.000011 40.467170 -0.000016 -0.149447 -8.609132 -7.429759 -7.604793 -2.521667 -16.076729 4.602796 -15.232200 -8.617219 -1.023809 -3.032490 -6.344346 0.000001 -0.000004 -0.000002 0.672562 -2.988253 25.363084 0.151843 -1.448121 11.972164 0.038077 -0.728024 5.985120 -0.000002 -0.000001 0.000000 0.672564 -2.988251 25.363095 0.151857 -1.448126 11.972162 0.038066 -0.728022 5.985114 -0.000001 0.000000 -0.000002 0.672562 -2.988249 25.363096 0.151860 -1.448119 11.972159 0.038063 -0.728027 5.985117 -0.000002 -0.000000 -0.000001 -11.119705 14.942051 11.041709 17.276207 -7.846167 -1.251023 -5.039745 0.933791 -6.918771 0.000001 0.000001 0.000001 0.000000 -0.000000 -0.000000 -2.090138 -9.778434 -7.662978 31.545563 7.360617 1.238990 -35.388163 -2.484878 4.380296 0.000011 -0.000002 0.000003 -0.000000 -0.000000 -0.000000 
